<svg width="163" height="164" viewBox="0 0 163 164" fill="none" xmlns="http://www.w3.org/2000/svg">
<g filter="url(#filter0_d_46_6)">
<mask id="path-1-inside-1_46_6" fill="white">
<path d="M141.082 90.3152C141.082 97.8005 139.478 105.213 136.363 112.128C133.247 119.044 128.68 125.327 122.923 130.62C117.165 135.913 110.331 140.112 102.808 142.976C95.2862 145.841 87.224 147.315 79.082 147.315C70.9401 147.315 62.8778 145.841 55.3557 142.976C47.8335 140.112 40.9986 135.913 35.2414 130.62C29.4842 125.327 24.9173 119.044 21.8015 112.128C18.6857 105.213 17.082 97.8005 17.082 90.3152H21.1422C21.1422 97.3103 22.6409 104.237 25.5526 110.7C28.4644 117.162 32.7322 123.035 38.1124 127.981C43.4926 132.927 49.8798 136.851 56.9094 139.528C63.939 142.205 71.4733 143.582 79.082 143.582C86.6908 143.582 94.2251 142.205 101.255 139.528C108.284 136.851 114.671 132.927 120.052 127.981C125.432 123.035 129.7 117.162 132.611 110.7C135.523 104.237 137.022 97.3103 137.022 90.3152H141.082Z"/>
</mask>
<path d="M141.082 90.3152C141.082 97.8005 139.478 105.213 136.363 112.128C133.247 119.044 128.68 125.327 122.923 130.62C117.165 135.913 110.331 140.112 102.808 142.976C95.2862 145.841 87.224 147.315 79.082 147.315C70.9401 147.315 62.8778 145.841 55.3557 142.976C47.8335 140.112 40.9986 135.913 35.2414 130.62C29.4842 125.327 24.9173 119.044 21.8015 112.128C18.6857 105.213 17.082 97.8005 17.082 90.3152H21.1422C21.1422 97.3103 22.6409 104.237 25.5526 110.7C28.4644 117.162 32.7322 123.035 38.1124 127.981C43.4926 132.927 49.8798 136.851 56.9094 139.528C63.939 142.205 71.4733 143.582 79.082 143.582C86.6908 143.582 94.2251 142.205 101.255 139.528C108.284 136.851 114.671 132.927 120.052 127.981C125.432 123.035 129.7 117.162 132.611 110.7C135.523 104.237 137.022 97.3103 137.022 90.3152H141.082Z" stroke="#63BE90" stroke-width="6" shape-rendering="crispEdges" mask="url(#path-1-inside-1_46_6)"/>
</g>
<g filter="url(#filter1_d_46_6)">
<mask id="path-2-inside-2_46_6" fill="white">
<path d="M17.082 78.8152C17.082 70.1356 19.1324 61.5686 23.0795 53.7565C27.0266 45.9445 32.7678 39.0902 39.8729 33.7075C46.9779 28.3248 55.2624 24.5535 64.105 22.6762C72.9476 20.7989 82.1189 20.8645 90.9314 22.8679L89.9882 26.678C81.7759 24.811 73.2292 24.7499 64.9887 26.4994C56.7483 28.2488 49.0281 31.7633 42.4069 36.7794C35.7857 41.7955 30.4354 48.1831 26.7572 55.4631C23.0789 62.7431 21.1681 70.7267 21.1681 78.8152L17.082 78.8152Z"/>
</mask>
<path d="M17.082 78.8152C17.082 70.1356 19.1324 61.5686 23.0795 53.7565C27.0266 45.9445 32.7678 39.0902 39.8729 33.7075C46.9779 28.3248 55.2624 24.5535 64.105 22.6762C72.9476 20.7989 82.1189 20.8645 90.9314 22.8679L89.9882 26.678C81.7759 24.811 73.2292 24.7499 64.9887 26.4994C56.7483 28.2488 49.0281 31.7633 42.4069 36.7794C35.7857 41.7955 30.4354 48.1831 26.7572 55.4631C23.0789 62.7431 21.1681 70.7267 21.1681 78.8152L17.082 78.8152Z" stroke="#63BE90" stroke-width="6" shape-rendering="crispEdges" mask="url(#path-2-inside-2_46_6)"/>
</g>
<g filter="url(#filter2_d_46_6)">
<mask id="path-3-inside-3_46_6" fill="white">
<path d="M106.528 27.8662C115.882 32.2184 123.911 38.9749 129.807 47.4566C135.702 55.9383 139.257 65.8463 140.114 76.1848L135.754 76.584C134.96 67.0132 131.669 57.841 126.212 49.9892C120.754 42.1374 113.322 35.8827 104.662 31.8537L106.528 27.8662Z"/>
</mask>
<path d="M106.528 27.8662C115.882 32.2184 123.911 38.9749 129.807 47.4566C135.702 55.9383 139.257 65.8463 140.114 76.1848L135.754 76.584C134.96 67.0132 131.669 57.841 126.212 49.9892C120.754 42.1374 113.322 35.8827 104.662 31.8537L106.528 27.8662Z" stroke="#63BE90" stroke-width="6" shape-rendering="crispEdges" mask="url(#path-3-inside-3_46_6)"/>
</g>
<circle cx="19.082" cy="84.3152" r="3.5" stroke="#63BE90"/>
<circle cx="99.082" cy="27.3152" r="3.5" stroke="#63BE90"/>
<circle cx="139.082" cy="83.3152" r="3.5" stroke="#63BE90"/>
<path d="M62.5299 97.0001H52.6666V75.0001H61.1366C62.109 75.0001 63.0417 74.6138 63.7293 73.9261C64.4169 73.2385 64.8033 72.3059 64.8033 71.3334C64.8033 70.361 64.4169 69.4283 63.7293 68.7407C63.0417 68.0531 62.109 67.6667 61.1366 67.6667H52.6666C50.7217 67.6667 48.8564 68.4394 47.4811 69.8146C46.1059 71.1899 45.3333 73.0552 45.3333 75.0001V97.0001C45.3333 98.945 46.1059 100.81 47.4811 102.186C48.8564 103.561 50.7217 104.333 52.6666 104.333H62.5299C63.5024 104.333 64.435 103.947 65.1226 103.259C65.8103 102.572 66.1966 101.639 66.1966 100.667C66.1966 99.6943 65.8103 98.7617 65.1226 98.074C64.435 97.3864 63.5024 97.0001 62.5299 97.0001ZM88.9299 87.6134C89.0196 87.3992 89.0931 87.1786 89.1499 86.9534C89.1672 86.7093 89.1672 86.4642 89.1499 86.2201C89.1499 86.2201 89.1499 86.2201 89.1499 86.0001C89.1499 85.7801 89.1499 85.7067 89.1499 85.5601C89.1282 85.3074 89.0663 85.0599 88.9666 84.8267C88.8911 84.6092 88.7927 84.4003 88.6732 84.2034C88.5729 83.995 88.45 83.7983 88.3066 83.6167L87.7199 83.1401L87.3899 82.8101H87.1699L86.5099 82.5901H85.7766H73.6766L78.9933 73.4234C79.4795 72.5774 79.6097 71.5728 79.3553 70.6308C79.1009 69.6887 78.4826 68.8863 77.6366 68.4001C76.7905 67.9139 75.786 67.7836 74.8439 68.038C73.9019 68.2925 73.0995 68.9107 72.6132 69.7567L64.1433 84.4234C64.1433 84.4234 64.1433 84.4234 64.1433 84.6434C64.0536 84.8576 63.98 85.0782 63.9233 85.3034C63.906 85.5476 63.906 85.7926 63.9233 86.0367L63.6666 86.0001C63.6666 86.0001 63.6666 86.2934 63.6666 86.4401C63.6883 86.6927 63.7502 86.9403 63.8499 87.1734C63.9254 87.391 64.0238 87.5999 64.1433 87.7967C64.2436 88.0052 64.3665 88.2019 64.5099 88.3834L65.0966 88.8601C65.1972 88.9791 65.3076 89.0895 65.4266 89.1901H65.6833H66.0133C66.4185 89.4325 66.8667 89.5943 67.3333 89.6667H79.3233L74.0066 98.8334C73.5204 99.6795 73.3901 100.684 73.6446 101.626C73.899 102.568 74.5172 103.371 75.3632 103.857C76.2093 104.343 77.2138 104.473 78.1559 104.219C79.0979 103.964 79.9004 103.346 80.3866 102.5L88.8566 87.8334C88.8566 87.8334 88.8932 87.6867 88.9299 87.6134ZM115 78.6667C114.027 78.6667 113.095 79.0531 112.407 79.7407C111.72 80.4283 111.333 81.361 111.333 82.3334V89.6667C111.333 90.6392 111.72 91.5718 112.407 92.2595C113.095 92.9471 114.027 93.3334 115 93.3334C115.972 93.3334 116.905 92.9471 117.593 92.2595C118.28 91.5718 118.667 90.6392 118.667 89.6667V82.3334C118.667 81.361 118.28 80.4283 117.593 79.7407C116.905 79.0531 115.972 78.6667 115 78.6667ZM100.333 67.6667H90.4699C89.4975 67.6667 88.5648 68.0531 87.8772 68.7407C87.1896 69.4283 86.8033 70.361 86.8033 71.3334C86.8033 72.3059 87.1896 73.2385 87.8772 73.9261C88.5648 74.6138 89.4975 75.0001 90.4699 75.0001H100.333V97.0001H91.8632C90.8908 97.0001 89.9582 97.3864 89.2705 98.074C88.5829 98.7617 88.1966 99.6943 88.1966 100.667C88.1966 101.639 88.5829 102.572 89.2705 103.259C89.9582 103.947 90.8908 104.333 91.8632 104.333H100.333C102.278 104.333 104.143 103.561 105.519 102.186C106.894 100.81 107.667 98.945 107.667 97.0001V75.0001C107.667 73.0552 106.894 71.1899 105.519 69.8146C104.143 68.4394 102.278 67.6667 100.333 67.6667Z" fill="#63BE90"/>
<defs>
<filter id="filter0_d_46_6" x="13.082" y="90.3152" width="132" height="65" filterUnits="userSpaceOnUse" color-interpolation-filters="sRGB">
<feFlood flood-opacity="0" result="BackgroundImageFix"/>
<feColorMatrix in="SourceAlpha" type="matrix" values="0 0 0 0 0 0 0 0 0 0 0 0 0 0 0 0 0 0 127 0" result="hardAlpha"/>
<feOffset dy="4"/>
<feGaussianBlur stdDeviation="2"/>
<feComposite in2="hardAlpha" operator="out"/>
<feColorMatrix type="matrix" values="0 0 0 0 0 0 0 0 0 0 0 0 0 0 0 0 0 0 0.25 0"/>
<feBlend mode="normal" in2="BackgroundImageFix" result="effect1_dropShadow_46_6"/>
<feBlend mode="normal" in="SourceGraphic" in2="effect1_dropShadow_46_6" result="shape"/>
</filter>
<filter id="filter1_d_46_6" x="13.082" y="21.3152" width="81.8494" height="65.5" filterUnits="userSpaceOnUse" color-interpolation-filters="sRGB">
<feFlood flood-opacity="0" result="BackgroundImageFix"/>
<feColorMatrix in="SourceAlpha" type="matrix" values="0 0 0 0 0 0 0 0 0 0 0 0 0 0 0 0 0 0 127 0" result="hardAlpha"/>
<feOffset dy="4"/>
<feGaussianBlur stdDeviation="2"/>
<feComposite in2="hardAlpha" operator="out"/>
<feColorMatrix type="matrix" values="0 0 0 0 0 0 0 0 0 0 0 0 0 0 0 0 0 0 0.25 0"/>
<feBlend mode="normal" in2="BackgroundImageFix" result="effect1_dropShadow_46_6"/>
<feBlend mode="normal" in="SourceGraphic" in2="effect1_dropShadow_46_6" result="shape"/>
</filter>
<filter id="filter2_d_46_6" x="100.662" y="27.8662" width="43.4526" height="56.7178" filterUnits="userSpaceOnUse" color-interpolation-filters="sRGB">
<feFlood flood-opacity="0" result="BackgroundImageFix"/>
<feColorMatrix in="SourceAlpha" type="matrix" values="0 0 0 0 0 0 0 0 0 0 0 0 0 0 0 0 0 0 127 0" result="hardAlpha"/>
<feOffset dy="4"/>
<feGaussianBlur stdDeviation="2"/>
<feComposite in2="hardAlpha" operator="out"/>
<feColorMatrix type="matrix" values="0 0 0 0 0 0 0 0 0 0 0 0 0 0 0 0 0 0 0.25 0"/>
<feBlend mode="normal" in2="BackgroundImageFix" result="effect1_dropShadow_46_6"/>
<feBlend mode="normal" in="SourceGraphic" in2="effect1_dropShadow_46_6" result="shape"/>
</filter>
</defs>
</svg>
