<svg width="163" height="164" viewBox="0 0 163 164" fill="none" xmlns="http://www.w3.org/2000/svg">
<path d="M100.999 50.1484H53.1653C50.4468 50.1484 47.8397 51.2283 45.9174 53.1506C43.9952 55.0728 42.9153 57.68 42.9153 60.3984V108.232C42.9153 110.95 43.9952 113.557 45.9174 115.48C47.8397 117.402 50.4468 118.482 53.1653 118.482H100.999C101.561 118.474 102.121 118.417 102.673 118.311L103.698 118.072H103.937H104.108L105.372 117.593L105.816 117.354C106.158 117.149 106.534 116.978 106.875 116.739C107.332 116.404 107.765 116.038 108.174 115.646L108.413 115.338C108.748 114.999 109.057 114.633 109.335 114.245L109.643 113.801C109.881 113.421 110.087 113.02 110.258 112.605C110.352 112.441 110.432 112.27 110.497 112.093C110.668 111.683 110.77 111.238 110.907 110.794V110.282C111.101 109.614 111.215 108.926 111.249 108.232V60.3984C111.249 57.68 110.169 55.0728 108.246 53.1506C106.324 51.2283 103.717 50.1484 100.999 50.1484ZM53.1653 111.648C52.2591 111.648 51.3901 111.288 50.7493 110.648C50.1086 110.007 49.7486 109.138 49.7486 108.232V93.5059L60.9894 82.2309C61.3071 81.9107 61.685 81.6565 62.1013 81.4831C62.5177 81.3096 62.9642 81.2203 63.4153 81.2203C63.8663 81.2203 64.3129 81.3096 64.7293 81.4831C65.1456 81.6565 65.5235 81.9107 65.8411 82.2309L95.2244 111.648H53.1653ZM104.415 108.232C104.412 108.653 104.331 109.07 104.176 109.462C104.098 109.628 104.007 109.788 103.903 109.94C103.811 110.085 103.709 110.222 103.595 110.35L85.3161 92.0709L88.3228 89.0643C88.6404 88.744 89.0183 88.4898 89.4346 88.3164C89.851 88.1429 90.2976 88.0536 90.7486 88.0536C91.1997 88.0536 91.6462 88.1429 92.0626 88.3164C92.4789 88.4898 92.8568 88.744 93.1744 89.0643L104.415 100.339V108.232ZM104.415 90.6701L97.992 84.3151C96.0367 82.4598 93.444 81.4256 90.7486 81.4256C88.0532 81.4256 85.4606 82.4598 83.5053 84.3151L80.4986 87.3218L70.6586 77.4818C68.7033 75.6265 66.1107 74.5922 63.4153 74.5922C60.7199 74.5922 58.1272 75.6265 56.1719 77.4818L49.7486 83.8368V60.3984C49.7486 59.4923 50.1086 58.6232 50.7493 57.9825C51.3901 57.3417 52.2591 56.9818 53.1653 56.9818H100.999C101.905 56.9818 102.774 57.3417 103.415 57.9825C104.055 58.6232 104.415 59.4923 104.415 60.3984V90.6701Z" fill="#63BE90"/>
<g filter="url(#filter0_d_46_5)">
<mask id="path-2-inside-1_46_5" fill="white">
<path d="M141.082 90.3152C141.082 97.8005 139.478 105.213 136.363 112.128C133.247 119.044 128.68 125.327 122.923 130.62C117.165 135.913 110.331 140.112 102.808 142.976C95.2862 145.841 87.224 147.315 79.082 147.315C70.9401 147.315 62.8778 145.841 55.3557 142.976C47.8335 140.112 40.9986 135.913 35.2414 130.62C29.4842 125.327 24.9173 119.044 21.8015 112.128C18.6857 105.213 17.082 97.8005 17.082 90.3152H21.1422C21.1422 97.3103 22.6409 104.237 25.5526 110.7C28.4644 117.162 32.7322 123.035 38.1124 127.981C43.4926 132.927 49.8798 136.851 56.9094 139.528C63.939 142.205 71.4733 143.582 79.082 143.582C86.6908 143.582 94.2251 142.205 101.255 139.528C108.284 136.851 114.671 132.927 120.052 127.981C125.432 123.035 129.7 117.162 132.611 110.7C135.523 104.237 137.022 97.3103 137.022 90.3152H141.082Z"/>
</mask>
<path d="M141.082 90.3152C141.082 97.8005 139.478 105.213 136.363 112.128C133.247 119.044 128.68 125.327 122.923 130.62C117.165 135.913 110.331 140.112 102.808 142.976C95.2862 145.841 87.224 147.315 79.082 147.315C70.9401 147.315 62.8778 145.841 55.3557 142.976C47.8335 140.112 40.9986 135.913 35.2414 130.62C29.4842 125.327 24.9173 119.044 21.8015 112.128C18.6857 105.213 17.082 97.8005 17.082 90.3152H21.1422C21.1422 97.3103 22.6409 104.237 25.5526 110.7C28.4644 117.162 32.7322 123.035 38.1124 127.981C43.4926 132.927 49.8798 136.851 56.9094 139.528C63.939 142.205 71.4733 143.582 79.082 143.582C86.6908 143.582 94.2251 142.205 101.255 139.528C108.284 136.851 114.671 132.927 120.052 127.981C125.432 123.035 129.7 117.162 132.611 110.7C135.523 104.237 137.022 97.3103 137.022 90.3152H141.082Z" stroke="#63BE90" stroke-width="6" shape-rendering="crispEdges" mask="url(#path-2-inside-1_46_5)"/>
</g>
<g filter="url(#filter1_d_46_5)">
<mask id="path-3-inside-2_46_5" fill="white">
<path d="M17.18 75.5302C17.6974 66.8648 20.2552 58.4241 24.6615 50.8409C29.0678 43.2577 35.2084 36.7289 42.6227 31.744C50.037 26.7591 58.5327 23.4475 67.4728 22.0574C76.4129 20.6673 85.5653 21.2349 94.2439 23.7175L93.0752 27.4698C84.9876 25.1562 76.4584 24.6273 68.1272 25.9227C59.7959 27.2181 51.8788 30.3042 44.9694 34.9496C38.06 39.5951 32.3377 45.6792 28.2314 52.746C24.1252 59.8127 21.7416 67.6786 21.2595 75.754L17.18 75.5302Z"/>
</mask>
<path d="M17.18 75.5302C17.6974 66.8648 20.2552 58.4241 24.6615 50.8409C29.0678 43.2577 35.2084 36.7289 42.6227 31.744C50.037 26.7591 58.5327 23.4475 67.4728 22.0574C76.4129 20.6673 85.5653 21.2349 94.2439 23.7175L93.0752 27.4698C84.9876 25.1562 76.4584 24.6273 68.1272 25.9227C59.7959 27.2181 51.8788 30.3042 44.9694 34.9496C38.06 39.5951 32.3377 45.6792 28.2314 52.746C24.1252 59.8127 21.7416 67.6786 21.2595 75.754L17.18 75.5302Z" stroke="#63BE90" stroke-width="6" shape-rendering="crispEdges" mask="url(#path-3-inside-2_46_5)"/>
</g>
<g filter="url(#filter2_d_46_5)">
<mask id="path-4-inside-3_46_5" fill="white">
<path d="M106.528 27.8662C115.882 32.2184 123.911 38.9749 129.807 47.4566C135.702 55.9383 139.257 65.8463 140.114 76.1848L135.754 76.584C134.96 67.0132 131.669 57.841 126.212 49.9892C120.754 42.1374 113.322 35.8827 104.662 31.8537L106.528 27.8662Z"/>
</mask>
<path d="M106.528 27.8662C115.882 32.2184 123.911 38.9749 129.807 47.4566C135.702 55.9383 139.257 65.8463 140.114 76.1848L135.754 76.584C134.96 67.0132 131.669 57.841 126.212 49.9892C120.754 42.1374 113.322 35.8827 104.662 31.8537L106.528 27.8662Z" stroke="#63BE90" stroke-width="6" shape-rendering="crispEdges" mask="url(#path-4-inside-3_46_5)"/>
</g>
<circle cx="19.082" cy="84.3152" r="3.5" stroke="#63BE90"/>
<circle cx="99.082" cy="27.3152" r="3.5" stroke="#63BE90"/>
<circle cx="139.082" cy="83.3152" r="3.5" stroke="#63BE90"/>
<defs>
<filter id="filter0_d_46_5" x="13.082" y="90.3152" width="132" height="65" filterUnits="userSpaceOnUse" color-interpolation-filters="sRGB">
<feFlood flood-opacity="0" result="BackgroundImageFix"/>
<feColorMatrix in="SourceAlpha" type="matrix" values="0 0 0 0 0 0 0 0 0 0 0 0 0 0 0 0 0 0 127 0" result="hardAlpha"/>
<feOffset dy="4"/>
<feGaussianBlur stdDeviation="2"/>
<feComposite in2="hardAlpha" operator="out"/>
<feColorMatrix type="matrix" values="0 0 0 0 0 0 0 0 0 0 0 0 0 0 0 0 0 0 0.25 0"/>
<feBlend mode="normal" in2="BackgroundImageFix" result="effect1_dropShadow_46_5"/>
<feBlend mode="normal" in="SourceGraphic" in2="effect1_dropShadow_46_5" result="shape"/>
</filter>
<filter id="filter1_d_46_5" x="13.1799" y="21.3152" width="85.064" height="62.4387" filterUnits="userSpaceOnUse" color-interpolation-filters="sRGB">
<feFlood flood-opacity="0" result="BackgroundImageFix"/>
<feColorMatrix in="SourceAlpha" type="matrix" values="0 0 0 0 0 0 0 0 0 0 0 0 0 0 0 0 0 0 127 0" result="hardAlpha"/>
<feOffset dy="4"/>
<feGaussianBlur stdDeviation="2"/>
<feComposite in2="hardAlpha" operator="out"/>
<feColorMatrix type="matrix" values="0 0 0 0 0 0 0 0 0 0 0 0 0 0 0 0 0 0 0.25 0"/>
<feBlend mode="normal" in2="BackgroundImageFix" result="effect1_dropShadow_46_5"/>
<feBlend mode="normal" in="SourceGraphic" in2="effect1_dropShadow_46_5" result="shape"/>
</filter>
<filter id="filter2_d_46_5" x="100.662" y="27.8662" width="43.4526" height="56.7178" filterUnits="userSpaceOnUse" color-interpolation-filters="sRGB">
<feFlood flood-opacity="0" result="BackgroundImageFix"/>
<feColorMatrix in="SourceAlpha" type="matrix" values="0 0 0 0 0 0 0 0 0 0 0 0 0 0 0 0 0 0 127 0" result="hardAlpha"/>
<feOffset dy="4"/>
<feGaussianBlur stdDeviation="2"/>
<feComposite in2="hardAlpha" operator="out"/>
<feColorMatrix type="matrix" values="0 0 0 0 0 0 0 0 0 0 0 0 0 0 0 0 0 0 0.25 0"/>
<feBlend mode="normal" in2="BackgroundImageFix" result="effect1_dropShadow_46_5"/>
<feBlend mode="normal" in="SourceGraphic" in2="effect1_dropShadow_46_5" result="shape"/>
</filter>
</defs>
</svg>
